<svg xmlns="http://www.w3.org/2000/svg" xmlns:xlink="http://www.w3.org/1999/xlink" width="540" zoomAndPan="magnify" viewBox="0 0 404.88 187.499995" height="250" preserveAspectRatio="xMidYMid meet" version="1.0"><defs><g/></defs><g fill="#ffd700" fill-opacity="1"><g transform="translate(51.333329, 101.433248)"><g><path d="M 2.78125 0 L 57.84375 0 L 57.84375 -39.53125 C 57.84375 -48.03125 51.078125 -56.515625 42.59375 -58.375 L 8.359375 -65.9375 L 8.359375 -33.03125 L 41.265625 -33.03125 L 41.265625 -27.46875 L 2.78125 -27.46875 Z M 2.78125 0 "/></g></g></g><g fill="#ffd700" fill-opacity="1"><g transform="translate(111.959088, 101.433248)"><g><path d="M 2.78125 38.46875 L 26.40625 31.703125 C 35.296875 29.046875 41.265625 22.15625 41.265625 13.671875 L 41.265625 -60.5 L 18.3125 -60.5 C 9.6875 -60.5 2.78125 -53.59375 2.78125 -44.96875 L 2.78125 0 L 24.8125 0 L 24.8125 5.4375 L 2.78125 5.4375 Z M 19.234375 -27.46875 L 19.234375 -33.03125 L 24.8125 -33.03125 L 24.8125 -27.46875 Z M 19.234375 -27.46875 "/></g></g></g><g fill="#ffd700" fill-opacity="1"><g transform="translate(153.216444, 101.433248)"><g><path d="M -9.28125 0 L 104.546875 0 L 115.5625 -27.46875 L -9.28125 -27.46875 Z M -9.28125 0 "/></g></g></g><g fill="#ffd700" fill-opacity="1"><g transform="translate(271.54944, 101.433248)"><g><path d="M 2.78125 0 L 57.1875 0 L 57.1875 -98.96875 L 40.734375 -93.53125 L 40.734375 -61.6875 L 36.09375 -60.5 L 35.6875 -60.5 L 35.6875 -91.9375 L 19.234375 -86.375 L 19.234375 -56.25 C 9.15625 -52.140625 2.78125 -45.5 2.78125 -34.890625 Z M 19.234375 -27.46875 L 19.234375 -33.03125 L 40.734375 -33.03125 L 40.734375 -27.46875 Z M 19.234375 -27.46875 "/></g></g></g><g fill="#ffd700" fill-opacity="1"><g transform="translate(331.511895, 101.433248)"><g><path d="M 2.78125 -93.53125 L 2.78125 0 L 19.234375 0 L 19.234375 -98.96875 Z M 2.78125 -93.53125 "/></g></g></g><g fill="#bc1823" fill-opacity="1"><g transform="translate(89.089071, 171.019644)"><g><path d="M 1.96875 -15.265625 C 2 -15.296875 2.675781 -15.3125 4 -15.3125 L 6 -15.3125 L 5.984375 -8.875 C 5.960938 -6.738281 5.953125 -5.109375 5.953125 -3.984375 C 5.953125 -2.859375 5.945312 -2.21875 5.9375 -2.0625 C 5.914062 -1.925781 5.90625 -1.65625 5.90625 -1.25 C 5.90625 -0.84375 5.90625 -0.300781 5.90625 0.375 L 5.90625 2.4375 L 3.921875 2.4375 L 1.90625 2.421875 L 1.9375 -6.390625 C 1.9375 -12.273438 1.945312 -15.234375 1.96875 -15.265625 Z M 1.96875 -15.265625 "/></g></g></g><g fill="#bc1823" fill-opacity="1"><g transform="translate(97.004223, 171.019644)"><g><path d="M 7.484375 -15.375 C 8.441406 -15.375 9.429688 -15.351562 10.453125 -15.3125 C 10.578125 -15.289062 10.734375 -15.273438 10.921875 -15.265625 C 11.109375 -15.265625 11.335938 -15.253906 11.609375 -15.234375 C 12.117188 -15.203125 12.425781 -15.179688 12.53125 -15.171875 L 13.5625 -15.125 L 13.546875 -11.5 C 13.503906 -11.5 13.304688 -11.523438 12.953125 -11.578125 C 12.609375 -11.640625 12.160156 -11.710938 11.609375 -11.796875 C 11.046875 -11.859375 10.488281 -11.910156 9.9375 -11.953125 C 9.382812 -11.992188 8.832031 -12.015625 8.28125 -12.015625 C 7.988281 -12.015625 7.644531 -12 7.25 -11.96875 C 6.863281 -11.945312 6.5 -11.882812 6.15625 -11.78125 C 5.8125 -11.675781 5.519531 -11.507812 5.28125 -11.28125 C 5.039062 -11.0625 4.921875 -10.742188 4.921875 -10.328125 C 4.921875 -9.953125 5.046875 -9.675781 5.296875 -9.5 C 5.554688 -9.320312 5.847656 -9.191406 6.171875 -9.109375 C 6.347656 -9.066406 6.601562 -9.019531 6.9375 -8.96875 C 7.269531 -8.925781 7.691406 -8.867188 8.203125 -8.796875 C 9.066406 -8.703125 9.789062 -8.613281 10.375 -8.53125 C 10.96875 -8.457031 11.445312 -8.359375 11.8125 -8.234375 C 12.351562 -8.054688 12.820312 -7.800781 13.21875 -7.46875 C 13.625 -7.144531 13.953125 -6.769531 14.203125 -6.34375 C 14.460938 -5.925781 14.648438 -5.460938 14.765625 -4.953125 C 14.890625 -4.441406 14.953125 -3.921875 14.953125 -3.390625 C 14.953125 -3.117188 14.945312 -2.875 14.9375 -2.65625 C 14.925781 -2.4375 14.914062 -2.242188 14.90625 -2.078125 C 14.78125 -1.140625 14.488281 -0.367188 14.03125 0.234375 C 13.570312 0.835938 13.015625 1.3125 12.359375 1.65625 C 11.710938 2 10.988281 2.238281 10.1875 2.375 C 9.394531 2.507812 8.59375 2.578125 7.78125 2.578125 C 6.6875 2.578125 5.597656 2.457031 4.515625 2.21875 C 3.429688 1.976562 2.390625 1.65625 1.390625 1.25 L 1.21875 1.171875 L 1.203125 -0.859375 C 1.234375 -2.035156 1.253906 -2.625 1.265625 -2.625 C 1.328125 -2.625 1.578125 -2.570312 2.015625 -2.46875 C 2.867188 -2.257812 3.726562 -2.085938 4.59375 -1.953125 C 5.457031 -1.828125 6.332031 -1.75 7.21875 -1.71875 C 7.539062 -1.707031 7.816406 -1.703125 8.046875 -1.703125 C 8.273438 -1.710938 8.457031 -1.726562 8.59375 -1.75 C 9.113281 -1.820312 9.53125 -1.953125 9.84375 -2.140625 C 10.164062 -2.335938 10.414062 -2.585938 10.59375 -2.890625 C 10.6875 -3.085938 10.734375 -3.367188 10.734375 -3.734375 C 10.734375 -4.242188 10.628906 -4.597656 10.421875 -4.796875 C 10.222656 -4.992188 9.859375 -5.140625 9.328125 -5.234375 C 9.203125 -5.265625 9.035156 -5.285156 8.828125 -5.296875 C 8.617188 -5.316406 8.363281 -5.34375 8.0625 -5.375 C 6.832031 -5.519531 5.796875 -5.6875 4.953125 -5.875 C 4.117188 -6.070312 3.441406 -6.320312 2.921875 -6.625 C 2.210938 -7.019531 1.707031 -7.539062 1.40625 -8.1875 C 1.101562 -8.832031 0.953125 -9.585938 0.953125 -10.453125 C 0.953125 -11.585938 1.21875 -12.546875 1.75 -13.328125 C 2.289062 -14.109375 3.039062 -14.65625 4 -14.96875 C 4.550781 -15.164062 5.125 -15.28125 5.71875 -15.3125 C 6.3125 -15.351562 6.898438 -15.375 7.484375 -15.375 Z M 7.484375 -15.375 "/></g></g></g><g fill="#bc1823" fill-opacity="1"><g transform="translate(112.906274, 171.019644)"><g><path d="M 1.90625 -6.453125 L 1.90625 -15.3125 L 5.9375 -15.3125 L 5.9375 -1.484375 L 13.828125 -1.484375 L 13.828125 0.484375 L 13.796875 2.421875 L 1.9375 2.421875 Z M 1.90625 -6.453125 "/></g></g></g><g fill="#bc1823" fill-opacity="1"><g transform="translate(127.37355, 171.019644)"><g><path d="M 10.859375 -7.921875 C 10.128906 -10.296875 9.734375 -11.484375 9.671875 -11.484375 C 9.648438 -11.453125 9.5625 -11.207031 9.40625 -10.75 C 9.257812 -10.300781 9.039062 -9.644531 8.75 -8.78125 C 8.539062 -8.175781 8.375 -7.679688 8.25 -7.296875 C 8.125 -6.910156 8.046875 -6.65625 8.015625 -6.53125 C 7.929688 -6.257812 7.914062 -6.113281 7.96875 -6.09375 C 8 -6.082031 8.585938 -6.078125 9.734375 -6.078125 C 10.117188 -6.078125 10.414062 -6.078125 10.625 -6.078125 C 10.84375 -6.078125 11.007812 -6.078125 11.125 -6.078125 C 11.25 -6.085938 11.328125 -6.097656 11.359375 -6.109375 C 11.390625 -6.117188 11.40625 -6.128906 11.40625 -6.140625 C 11.394531 -6.179688 11.34375 -6.347656 11.25 -6.640625 C 11.164062 -6.929688 11.035156 -7.359375 10.859375 -7.921875 Z M 7.3125 -15.265625 C 7.351562 -15.296875 8.128906 -15.3125 9.640625 -15.3125 C 10.179688 -15.320312 10.613281 -15.320312 10.9375 -15.3125 C 11.269531 -15.3125 11.492188 -15.3125 11.609375 -15.3125 C 11.828125 -15.28125 11.945312 -15.25 11.96875 -15.21875 C 11.976562 -15.1875 12.023438 -15.0625 12.109375 -14.84375 C 12.203125 -14.625 12.328125 -14.316406 12.484375 -13.921875 C 12.691406 -13.398438 12.859375 -12.96875 12.984375 -12.625 C 13.117188 -12.289062 13.21875 -12.0625 13.28125 -11.9375 C 14.09375 -9.832031 14.890625 -7.738281 15.671875 -5.65625 C 16.460938 -3.570312 17.234375 -1.460938 17.984375 0.671875 C 18.273438 1.429688 18.460938 1.914062 18.546875 2.125 C 18.609375 2.289062 18.609375 2.378906 18.546875 2.390625 C 18.410156 2.421875 17.679688 2.4375 16.359375 2.4375 L 14.109375 2.4375 L 13.90625 1.75 C 13.46875 0.34375 13.128906 -0.722656 12.890625 -1.453125 C 12.648438 -2.191406 12.515625 -2.609375 12.484375 -2.703125 L 12.4375 -2.84375 L 9.671875 -2.84375 C 7.816406 -2.84375 6.875 -2.820312 6.84375 -2.78125 C 6.8125 -2.75 6.507812 -1.867188 5.9375 -0.140625 L 5.078125 2.421875 L 2.890625 2.4375 C 1.441406 2.457031 0.71875 2.453125 0.71875 2.421875 C 0.71875 2.390625 0.789062 2.179688 0.9375 1.796875 C 0.945312 1.773438 1.070312 1.457031 1.3125 0.84375 C 1.425781 0.519531 1.535156 0.234375 1.640625 -0.015625 C 1.742188 -0.273438 1.832031 -0.515625 1.90625 -0.734375 C 2.914062 -3.359375 3.863281 -5.867188 4.75 -8.265625 C 5.644531 -10.660156 6.5 -12.992188 7.3125 -15.265625 Z M 7.3125 -15.265625 "/></g></g></g><g fill="#bc1823" fill-opacity="1"><g transform="translate(146.695132, 171.019644)"><g><path d="M 1.90625 -8.96875 L 1.90625 -15.3125 L 4.640625 -15.3125 L 7.34375 -15.28125 L 7.578125 -14.765625 C 7.835938 -14.203125 8.179688 -13.46875 8.609375 -12.5625 C 9.035156 -11.65625 9.570312 -10.546875 10.21875 -9.234375 C 10.425781 -8.816406 10.582031 -8.488281 10.6875 -8.25 C 10.800781 -8.007812 10.867188 -7.867188 10.890625 -7.828125 C 10.929688 -7.722656 10.960938 -7.660156 10.984375 -7.640625 C 11.015625 -7.628906 11.066406 -7.625 11.140625 -7.625 C 11.285156 -7.65625 11.390625 -7.738281 11.453125 -7.875 C 11.515625 -7.945312 11.640625 -8.191406 11.828125 -8.609375 C 12.023438 -9.035156 12.304688 -9.644531 12.671875 -10.4375 C 13.023438 -11.195312 13.332031 -11.863281 13.59375 -12.4375 C 13.863281 -13.007812 14.082031 -13.503906 14.25 -13.921875 C 14.414062 -14.273438 14.539062 -14.554688 14.625 -14.765625 C 14.71875 -14.972656 14.769531 -15.097656 14.78125 -15.140625 L 14.875 -15.3125 L 17.625 -15.3125 L 20.40625 -15.28125 L 20.40625 -6.4375 L 20.421875 2.4375 L 16.484375 2.4375 L 16.484375 -4.453125 C 16.484375 -5.484375 16.484375 -6.421875 16.484375 -7.265625 C 16.484375 -8.117188 16.484375 -8.835938 16.484375 -9.421875 C 16.484375 -10.015625 16.476562 -10.46875 16.46875 -10.78125 C 16.457031 -11.09375 16.445312 -11.238281 16.4375 -11.21875 C 16.414062 -11.1875 16.164062 -10.613281 15.6875 -9.5 C 15.207031 -8.382812 14.484375 -6.734375 13.515625 -4.546875 L 13.0625 -3.515625 L 9.15625 -3.515625 L 8.6875 -4.59375 C 8.300781 -5.457031 7.898438 -6.351562 7.484375 -7.28125 C 7.066406 -8.21875 6.644531 -9.210938 6.21875 -10.265625 C 5.9375 -10.953125 5.773438 -11.3125 5.734375 -11.34375 L 5.734375 -8.734375 C 5.753906 -7.773438 5.757812 -6.722656 5.75 -5.578125 C 5.738281 -4.441406 5.726562 -3.1875 5.71875 -1.8125 L 5.6875 2.4375 L 1.90625 2.4375 Z M 1.90625 -8.96875 "/></g></g></g><g fill="#bc1823" fill-opacity="1"><g transform="translate(169.029737, 171.019644)"><g><path d="M 1.96875 -15.265625 C 2 -15.296875 2.675781 -15.3125 4 -15.3125 L 6 -15.3125 L 5.984375 -8.875 C 5.960938 -6.738281 5.953125 -5.109375 5.953125 -3.984375 C 5.953125 -2.859375 5.945312 -2.21875 5.9375 -2.0625 C 5.914062 -1.925781 5.90625 -1.65625 5.90625 -1.25 C 5.90625 -0.84375 5.90625 -0.300781 5.90625 0.375 L 5.90625 2.4375 L 3.921875 2.4375 L 1.90625 2.421875 L 1.9375 -6.390625 C 1.9375 -12.273438 1.945312 -15.234375 1.96875 -15.265625 Z M 1.96875 -15.265625 "/></g></g></g><g fill="#bc1823" fill-opacity="1"><g transform="translate(176.94489, 171.019644)"><g><path d="M 10.8125 -15.5 C 12.257812 -15.5 13.71875 -15.289062 15.1875 -14.875 L 15.53125 -14.78125 L 15.53125 -12.875 C 15.53125 -11.59375 15.519531 -10.953125 15.5 -10.953125 C 15.488281 -10.953125 15.460938 -10.96875 15.421875 -11 C 15.390625 -11.03125 15.328125 -11.078125 15.234375 -11.140625 C 14.992188 -11.316406 14.703125 -11.46875 14.359375 -11.59375 C 14.015625 -11.726562 13.660156 -11.832031 13.296875 -11.90625 C 12.929688 -11.988281 12.5625 -12.050781 12.1875 -12.09375 C 11.8125 -12.132812 11.472656 -12.15625 11.171875 -12.15625 C 9.179688 -12.15625 7.691406 -11.691406 6.703125 -10.765625 C 5.722656 -9.835938 5.203125 -8.414062 5.140625 -6.5 C 5.128906 -6.125 5.125 -5.785156 5.125 -5.484375 C 5.132812 -5.179688 5.164062 -4.898438 5.21875 -4.640625 C 5.320312 -4.046875 5.617188 -3.519531 6.109375 -3.0625 C 6.597656 -2.613281 7.113281 -2.285156 7.65625 -2.078125 C 8.039062 -1.929688 8.472656 -1.820312 8.953125 -1.75 C 9.429688 -1.6875 9.925781 -1.65625 10.4375 -1.65625 C 11.195312 -1.65625 11.9375 -1.726562 12.65625 -1.875 C 13.375 -2.03125 14.078125 -2.273438 14.765625 -2.609375 C 14.984375 -2.722656 15.148438 -2.8125 15.265625 -2.875 C 15.390625 -2.945312 15.460938 -2.984375 15.484375 -2.984375 C 15.492188 -2.984375 15.503906 -2.757812 15.515625 -2.3125 C 15.523438 -1.875 15.53125 -1.34375 15.53125 -0.71875 L 15.53125 1.578125 L 15.140625 1.71875 C 14.421875 1.988281 13.65625 2.179688 12.84375 2.296875 C 12.03125 2.421875 11.242188 2.484375 10.484375 2.484375 C 9.617188 2.484375 8.765625 2.410156 7.921875 2.265625 C 7.085938 2.128906 6.300781 1.890625 5.5625 1.546875 C 4.832031 1.210938 4.171875 0.757812 3.578125 0.1875 C 2.992188 -0.382812 2.519531 -1.101562 2.15625 -1.96875 C 1.882812 -2.601562 1.691406 -3.28125 1.578125 -4 C 1.460938 -4.726562 1.421875 -5.523438 1.453125 -6.390625 C 1.484375 -7.347656 1.566406 -8.203125 1.703125 -8.953125 C 1.835938 -9.710938 2.0625 -10.390625 2.375 -10.984375 C 2.78125 -11.796875 3.285156 -12.488281 3.890625 -13.0625 C 4.503906 -13.632812 5.171875 -14.097656 5.890625 -14.453125 C 6.617188 -14.816406 7.398438 -15.082031 8.234375 -15.25 C 9.078125 -15.414062 9.9375 -15.5 10.8125 -15.5 Z M 10.8125 -15.5 "/></g></g></g><g fill="#bc1823" fill-opacity="1"><g transform="translate(193.683893, 171.019644)"><g/></g></g><g fill="#bc1823" fill-opacity="1"><g transform="translate(202.053389, 171.019644)"><g><path d="M 1.96875 -15.265625 C 2 -15.296875 2.675781 -15.3125 4 -15.3125 L 6 -15.3125 L 5.984375 -8.875 C 5.960938 -6.738281 5.953125 -5.109375 5.953125 -3.984375 C 5.953125 -2.859375 5.945312 -2.21875 5.9375 -2.0625 C 5.914062 -1.925781 5.90625 -1.65625 5.90625 -1.25 C 5.90625 -0.84375 5.90625 -0.300781 5.90625 0.375 L 5.90625 2.4375 L 3.921875 2.4375 L 1.90625 2.421875 L 1.9375 -6.390625 C 1.9375 -12.273438 1.945312 -15.234375 1.96875 -15.265625 Z M 1.96875 -15.265625 "/></g></g></g><g fill="#bc1823" fill-opacity="1"><g transform="translate(209.968541, 171.019644)"><g><path d="M 2.109375 -15.125 L 2.109375 -15.3125 L 4.78125 -15.3125 C 6.570312 -15.3125 7.46875 -15.296875 7.46875 -15.265625 C 7.46875 -15.234375 7.632812 -14.90625 7.96875 -14.28125 C 8.539062 -13.207031 9.238281 -11.847656 10.0625 -10.203125 C 10.882812 -8.566406 11.820312 -6.609375 12.875 -4.328125 C 13.15625 -3.722656 13.367188 -3.265625 13.515625 -2.953125 C 13.660156 -2.640625 13.75 -2.460938 13.78125 -2.421875 L 13.875 -2.203125 L 13.84375 -8.75 L 13.84375 -15.3125 L 17.96875 -15.3125 L 17.96875 -9.6875 C 17.945312 -7.40625 17.929688 -5.523438 17.921875 -4.046875 C 17.921875 -2.578125 17.921875 -1.507812 17.921875 -0.84375 L 17.890625 2.390625 L 17.71875 2.421875 C 17.644531 2.429688 16.8125 2.4375 15.21875 2.4375 C 14.4375 2.425781 13.84375 2.421875 13.4375 2.421875 C 13.03125 2.421875 12.8125 2.410156 12.78125 2.390625 C 12.738281 2.378906 12.640625 2.234375 12.484375 1.953125 C 12.328125 1.671875 12.132812 1.320312 11.90625 0.90625 C 11.6875 0.488281 11.453125 0.0351562 11.203125 -0.453125 C 10.960938 -0.953125 10.722656 -1.421875 10.484375 -1.859375 C 10.253906 -2.296875 10.054688 -2.679688 9.890625 -3.015625 C 9.722656 -3.347656 9.613281 -3.5625 9.5625 -3.65625 C 9.070312 -4.675781 8.5625 -5.738281 8.03125 -6.84375 C 7.507812 -7.945312 6.984375 -9.09375 6.453125 -10.28125 L 5.890625 -11.609375 L 5.90625 -7.734375 C 5.90625 -7.628906 5.90625 -7.316406 5.90625 -6.796875 C 5.90625 -6.285156 5.914062 -5.554688 5.9375 -4.609375 C 5.945312 -3.660156 5.953125 -2.863281 5.953125 -2.21875 C 5.953125 -1.570312 5.953125 -1.085938 5.953125 -0.765625 L 6 2.390625 L 5.6875 2.421875 C 5.582031 2.429688 5.363281 2.4375 5.03125 2.4375 C 4.707031 2.4375 4.265625 2.4375 3.703125 2.4375 C 2.617188 2.4375 2.046875 2.421875 1.984375 2.390625 C 1.921875 2.359375 1.90625 1.601562 1.9375 0.125 C 1.957031 -1.164062 1.96875 -2.476562 1.96875 -3.8125 C 1.976562 -5.144531 1.992188 -6.5 2.015625 -7.875 C 2.023438 -11.90625 2.046875 -14.039062 2.078125 -14.28125 C 2.097656 -14.539062 2.109375 -14.738281 2.109375 -14.875 C 2.109375 -15.007812 2.109375 -15.09375 2.109375 -15.125 Z M 2.109375 -15.125 "/></g></g></g><g fill="#bc1823" fill-opacity="1"><g transform="translate(229.840125, 171.019644)"><g><path d="M 7.484375 -15.375 C 8.441406 -15.375 9.429688 -15.351562 10.453125 -15.3125 C 10.578125 -15.289062 10.734375 -15.273438 10.921875 -15.265625 C 11.109375 -15.265625 11.335938 -15.253906 11.609375 -15.234375 C 12.117188 -15.203125 12.425781 -15.179688 12.53125 -15.171875 L 13.5625 -15.125 L 13.546875 -11.5 C 13.503906 -11.5 13.304688 -11.523438 12.953125 -11.578125 C 12.609375 -11.640625 12.160156 -11.710938 11.609375 -11.796875 C 11.046875 -11.859375 10.488281 -11.910156 9.9375 -11.953125 C 9.382812 -11.992188 8.832031 -12.015625 8.28125 -12.015625 C 7.988281 -12.015625 7.644531 -12 7.25 -11.96875 C 6.863281 -11.945312 6.5 -11.882812 6.15625 -11.78125 C 5.8125 -11.675781 5.519531 -11.507812 5.28125 -11.28125 C 5.039062 -11.0625 4.921875 -10.742188 4.921875 -10.328125 C 4.921875 -9.953125 5.046875 -9.675781 5.296875 -9.5 C 5.554688 -9.320312 5.847656 -9.191406 6.171875 -9.109375 C 6.347656 -9.066406 6.601562 -9.019531 6.9375 -8.96875 C 7.269531 -8.925781 7.691406 -8.867188 8.203125 -8.796875 C 9.066406 -8.703125 9.789062 -8.613281 10.375 -8.53125 C 10.96875 -8.457031 11.445312 -8.359375 11.8125 -8.234375 C 12.351562 -8.054688 12.820312 -7.800781 13.21875 -7.46875 C 13.625 -7.144531 13.953125 -6.769531 14.203125 -6.34375 C 14.460938 -5.925781 14.648438 -5.460938 14.765625 -4.953125 C 14.890625 -4.441406 14.953125 -3.921875 14.953125 -3.390625 C 14.953125 -3.117188 14.945312 -2.875 14.9375 -2.65625 C 14.925781 -2.4375 14.914062 -2.242188 14.90625 -2.078125 C 14.78125 -1.140625 14.488281 -0.367188 14.03125 0.234375 C 13.570312 0.835938 13.015625 1.3125 12.359375 1.65625 C 11.710938 2 10.988281 2.238281 10.1875 2.375 C 9.394531 2.507812 8.59375 2.578125 7.78125 2.578125 C 6.6875 2.578125 5.597656 2.457031 4.515625 2.21875 C 3.429688 1.976562 2.390625 1.65625 1.390625 1.25 L 1.21875 1.171875 L 1.203125 -0.859375 C 1.234375 -2.035156 1.253906 -2.625 1.265625 -2.625 C 1.328125 -2.625 1.578125 -2.570312 2.015625 -2.46875 C 2.867188 -2.257812 3.726562 -2.085938 4.59375 -1.953125 C 5.457031 -1.828125 6.332031 -1.75 7.21875 -1.71875 C 7.539062 -1.707031 7.816406 -1.703125 8.046875 -1.703125 C 8.273438 -1.710938 8.457031 -1.726562 8.59375 -1.75 C 9.113281 -1.820312 9.53125 -1.953125 9.84375 -2.140625 C 10.164062 -2.335938 10.414062 -2.585938 10.59375 -2.890625 C 10.6875 -3.085938 10.734375 -3.367188 10.734375 -3.734375 C 10.734375 -4.242188 10.628906 -4.597656 10.421875 -4.796875 C 10.222656 -4.992188 9.859375 -5.140625 9.328125 -5.234375 C 9.203125 -5.265625 9.035156 -5.285156 8.828125 -5.296875 C 8.617188 -5.316406 8.363281 -5.34375 8.0625 -5.375 C 6.832031 -5.519531 5.796875 -5.6875 4.953125 -5.875 C 4.117188 -6.070312 3.441406 -6.320312 2.921875 -6.625 C 2.210938 -7.019531 1.707031 -7.539062 1.40625 -8.1875 C 1.101562 -8.832031 0.953125 -9.585938 0.953125 -10.453125 C 0.953125 -11.585938 1.21875 -12.546875 1.75 -13.328125 C 2.289062 -14.109375 3.039062 -14.65625 4 -14.96875 C 4.550781 -15.164062 5.125 -15.28125 5.71875 -15.3125 C 6.3125 -15.351562 6.898438 -15.375 7.484375 -15.375 Z M 7.484375 -15.375 "/></g></g></g><g fill="#bc1823" fill-opacity="1"><g transform="translate(245.742176, 171.019644)"><g><path d="M 0.71875 -15.234375 L 15.21875 -15.234375 L 15.21875 -11.96875 L 10.015625 -11.96875 L 10.015625 -4.875 L 10 2.4375 L 6.078125 2.4375 L 6.03125 -11.9375 L 3.375 -11.96875 L 0.71875 -11.96875 Z M 0.71875 -15.234375 "/></g></g></g><g fill="#bc1823" fill-opacity="1"><g transform="translate(261.668139, 171.019644)"><g><path d="M 1.96875 -15.265625 C 2 -15.296875 2.675781 -15.3125 4 -15.3125 L 6 -15.3125 L 5.984375 -8.875 C 5.960938 -6.738281 5.953125 -5.109375 5.953125 -3.984375 C 5.953125 -2.859375 5.945312 -2.21875 5.9375 -2.0625 C 5.914062 -1.925781 5.90625 -1.65625 5.90625 -1.25 C 5.90625 -0.84375 5.90625 -0.300781 5.90625 0.375 L 5.90625 2.4375 L 3.921875 2.4375 L 1.90625 2.421875 L 1.9375 -6.390625 C 1.9375 -12.273438 1.945312 -15.234375 1.96875 -15.265625 Z M 1.96875 -15.265625 "/></g></g></g><g fill="#bc1823" fill-opacity="1"><g transform="translate(269.583292, 171.019644)"><g><path d="M 0.71875 -15.234375 L 15.21875 -15.234375 L 15.21875 -11.96875 L 10.015625 -11.96875 L 10.015625 -4.875 L 10 2.4375 L 6.078125 2.4375 L 6.03125 -11.9375 L 3.375 -11.96875 L 0.71875 -11.96875 Z M 0.71875 -15.234375 "/></g></g></g><g fill="#bc1823" fill-opacity="1"><g transform="translate(285.509255, 171.019644)"><g><path d="M 1.8125 -9.046875 L 1.796875 -15.3125 L 5.71875 -15.3125 L 5.71875 -9.46875 C 5.71875 -7.507812 5.71875 -6.023438 5.71875 -5.015625 C 5.726562 -4.003906 5.742188 -3.457031 5.765625 -3.375 C 5.910156 -2.632812 6.390625 -2.164062 7.203125 -1.96875 C 7.859375 -1.863281 8.507812 -1.8125 9.15625 -1.8125 C 9.625 -1.8125 10.039062 -1.835938 10.40625 -1.890625 C 10.769531 -1.953125 11.09375 -2.0625 11.375 -2.21875 C 11.65625 -2.382812 11.878906 -2.617188 12.046875 -2.921875 C 12.210938 -3.222656 12.320312 -3.613281 12.375 -4.09375 C 12.382812 -4.28125 12.394531 -4.726562 12.40625 -5.4375 C 12.414062 -6.144531 12.421875 -7.125 12.421875 -8.375 C 12.421875 -9.539062 12.421875 -10.566406 12.421875 -11.453125 C 12.421875 -12.347656 12.425781 -13.109375 12.4375 -13.734375 L 12.46875 -15.3125 L 16.4375 -15.3125 L 16.40625 -9.5625 C 16.394531 -5.582031 16.347656 -3.3125 16.265625 -2.75 C 16.148438 -1.726562 15.90625 -0.875 15.53125 -0.1875 C 15.15625 0.5 14.671875 1.046875 14.078125 1.453125 C 13.484375 1.859375 12.773438 2.144531 11.953125 2.3125 C 11.140625 2.476562 10.25 2.5625 9.28125 2.5625 C 8.257812 2.5625 7.304688 2.476562 6.421875 2.3125 C 5.535156 2.15625 4.757812 1.863281 4.09375 1.4375 C 3.4375 1.019531 2.910156 0.453125 2.515625 -0.265625 C 2.128906 -0.984375 1.910156 -1.890625 1.859375 -2.984375 C 1.847656 -3.273438 1.835938 -3.921875 1.828125 -4.921875 C 1.816406 -5.929688 1.8125 -7.304688 1.8125 -9.046875 Z M 1.8125 -9.046875 "/></g></g></g><g fill="#bc1823" fill-opacity="1"><g transform="translate(303.730835, 171.019644)"><g><path d="M 0.71875 -15.234375 L 15.21875 -15.234375 L 15.21875 -11.96875 L 10.015625 -11.96875 L 10.015625 -4.875 L 10 2.4375 L 6.078125 2.4375 L 6.03125 -11.9375 L 3.375 -11.96875 L 0.71875 -11.96875 Z M 0.71875 -15.234375 "/></g></g></g><g fill="#bc1823" fill-opacity="1"><g transform="translate(319.65681, 171.019644)"><g><path d="M 1.96875 -15.234375 C 1.976562 -15.253906 4.101562 -15.265625 8.34375 -15.265625 L 14.734375 -15.265625 L 14.734375 -12.109375 L 10.265625 -12.109375 L 5.796875 -12.078125 L 5.765625 -10.3125 L 5.765625 -8.5625 L 13.96875 -8.5625 L 13.96875 -5.28125 L 5.796875 -5.28125 L 5.765625 -3.421875 L 5.765625 -1.609375 L 15 -1.609375 L 15 0.328125 L 14.96875 2.296875 L 8.46875 2.328125 L 1.90625 2.328125 L 1.90625 -6.453125 C 1.90625 -12.273438 1.925781 -15.203125 1.96875 -15.234375 Z M 1.96875 -15.234375 "/></g></g></g></svg>